<svg xmlns="http://www.w3.org/2000/svg" xmlns:xlink="http://www.w3.org/1999/xlink" version="1.1" id="Layer_1" x="0px" y="0px" width="100px" height="100px" viewBox="0 0 100 100" enable-background="new 0 0 100 100" xml:space="preserve">
<path fill="#000000" d="M75.403,56.855l3.692-3.691c0.099-0.093,0.193-0.187,0.284-0.285l0.054-0.054  c0.195-0.195,0.358-0.412,0.487-0.643c0.894-1.27,1.364-2.745,1.364-4.297l0.001-23.626c0-2.015-0.785-3.909-2.209-5.334  c-1.425-1.424-3.318-2.208-5.332-2.208H50.118c-1.671,0-3.255,0.545-4.588,1.578c-0.062,0.045-0.122,0.091-0.181,0.141  c-0.363,0.299-0.693,0.624-0.983,0.967l-2.908,2.908c-0.253,0.203-0.48,0.405-0.689,0.613L29.082,34.614L18.73,44.966l-2.522,2.521  c-1.993,1.993-1.993,5.224,0,7.216l2.522,2.522l22.039,22.039l2.522,2.521c1.993,1.993,5.223,1.993,7.216,0l2.522-2.521  l10.352-10.353l11.688-11.687C75.179,57.114,75.282,56.999,75.403,56.855z M74.566,23.438c1.385,1.385,1.384,3.627,0,5.011  s-3.627,1.385-5.011,0c-1.384-1.383-1.385-3.627-0.001-5.012C70.938,22.053,73.184,22.054,74.566,23.438z"/>
</svg>